<?xml version="1.0" encoding="utf-8"?>
<!-- Generator: Adobe Illustrator 23.0.3, SVG Export Plug-In . SVG Version: 6.00 Build 0)  -->
<svg version="1.1" xmlns="http://www.w3.org/2000/svg" xmlns:xlink="http://www.w3.org/1999/xlink" x="0px" y="0px"
	 viewBox="0 0 500 500" style="enable-background:new 0 0 500 500;" xml:space="preserve">
<style type="text/css">
	.st0{fill:#FFFFFF;}
</style>
<g id="Layer_1">
	<g>
		<path class="st0" d="M250,0C111.9,0,0,111.9,0,250s111.9,250,250,250s250-111.9,250-250S388.1,0,250,0z M250,25
			c41.4,0,75,33.6,75,75c0,41.4-33.6,75-75,75s-75-33.6-75-75C175,58.6,208.6,25,250,25z M36,180.5c12.8-39.4,55.1-61,94.5-48.2
			c39.4,12.8,61,55.1,48.2,94.5c-12.8,39.4-55.1,61-94.5,48.2C44.8,262.2,23.2,219.9,36,180.5z M222.5,415.4
			c-24.3,33.5-71.2,40.9-104.8,16.6c-33.5-24.3-40.9-71.2-16.6-104.8c24.3-33.5,71.2-40.9,104.8-16.6
			C239.4,335,246.9,381.9,222.5,415.4z M225,250c0-13.8,11.2-25,25-25s25,11.2,25,25s-11.2,25-25,25S225,263.8,225,250z M382.3,432
			c-33.5,24.3-80.4,16.9-104.8-16.6c-24.3-33.5-16.9-80.4,16.6-104.8c33.5-24.3,80.4-16.9,104.8,16.6
			C423.2,360.8,415.8,407.7,382.3,432z M415.8,275c-39.4,12.8-81.7-8.8-94.5-48.2c-12.8-39.4,8.8-81.7,48.2-94.5
			c39.4-12.8,81.7,8.8,94.5,48.2C476.8,219.9,455.2,262.2,415.8,275z"/>
	</g>
</g>
<g id="Layer_3">
</g>
</svg>
