<svg id="Layer_1" data-name="Layer 1" xmlns="http://www.w3.org/2000/svg" viewBox="0 0 100 86.67"><defs><style>.cls-1{fill:#fff;}</style></defs><title>vimeo_icon_white</title><path class="icon" d="M110,37.05q-.66,14.63-20.39,40.06-20.4,26.55-34.51,26.56-8.74,0-14.79-16.18L32.19,57.84q-4.5-16.17-9.64-16.18-1.12,0-7.84,4.72L10,40.31q7.41-6.51,14.59-13,9.89-8.55,14.82-9,11.67-1.12,14.37,16,2.91,18.47,4,23,3.38,15.32,7.41,15.31,3.15,0,9.43-9.94t6.73-15.13c.6-5.71-1.64-8.58-6.73-8.58a18.73,18.73,0,0,0-7.4,1.64Q74.63,16.33,95.42,17,110.84,17.47,110,37.05Z" transform="translate(-10 -17)"/></svg>