<?xml version="1.0" encoding="utf-8"?>
<!-- Generator: Adobe Illustrator 27.1.1, SVG Export Plug-In . SVG Version: 6.00 Build 0)  -->
<svg version="1.1" id="Layer_1" xmlns="http://www.w3.org/2000/svg" xmlns:xlink="http://www.w3.org/1999/xlink" x="0px" y="0px"
	 viewBox="0 0 120 120" style="enable-background:new 0 0 120 120;" xml:space="preserve">
<style type="text/css">
	.st0{fill:#FFFFFF;}
	.st1{fill:#172322;}
</style>
<rect x="0" y="0" class="st0" width="120" height="120"/>
<path class="st1" d="M110,37.1c-0.4,9.8-7.2,23.1-20.4,40.1C76,94.8,64.5,103.7,55,103.7c-5.8,0-10.8-5.4-14.8-16.2
	c-2.7-9.9-5.4-19.8-8.1-29.7c-3-10.8-6.2-16.2-9.6-16.2c-0.7,0-3.4,1.6-7.8,4.7L10,40.3c4.9-4.3,9.8-8.7,14.6-13
	c6.6-5.7,11.5-8.7,14.8-9c7.8-0.7,12.6,4.6,14.4,16c1.9,12.3,3.3,20,4,23c2.2,10.2,4.7,15.3,7.4,15.3c2.1,0,5.2-3.3,9.4-9.9
	c4.2-6.6,6.4-11.7,6.7-15.1c0.6-5.7-1.6-8.6-6.7-8.6c-2.4,0-4.9,0.6-7.4,1.6c4.9-16.1,14.3-24,28.2-23.5
	C105.7,17.3,110.5,24,110,37.1z"/>
</svg>
